<?xml version="1.0" standalone="no"?>
<!DOCTYPE svg PUBLIC "-//W3C//DTD SVG 20010904//EN"
 "http://www.w3.org/TR/2001/REC-SVG-20010904/DTD/svg10.dtd">
<svg version="1.0" xmlns="http://www.w3.org/2000/svg"
 width="64.000000pt" height="64.000000pt" viewBox="0 0 64.000000 64.000000"
 preserveAspectRatio="xMidYMid meet">
<metadata>
Created by potrace 1.10, written by Peter Selinger 2001-2011
</metadata>
<g transform="translate(0.000000,64.000000) scale(0.100000,-0.100000)"
fill="#b0bec5" stroke="none">
<path d="M220 621 c-93 -29 -185 -126 -204 -216 -3 -16 -2 -36 2 -43 6 -9 15
5 27 43 31 100 93 159 203 195 29 9 38 16 30 22 -15 9 -24 9 -58 -1z"/>
<path d="M357 624 c-4 -4 15 -15 43 -24 103 -35 177 -112 202 -208 7 -30 13
-40 19 -30 31 47 -61 191 -151 238 -42 22 -102 34 -113 24z"/>
<path d="M230 558 c-25 -12 -51 -28 -58 -35 -7 -7 -21 -18 -30 -25 -32 -23
-69 -82 -82 -130 -30 -114 19 -229 120 -281 49 -25 63 -28 137 -25 65 2 86 7
100 22 17 18 17 18 -7 11 -14 -4 -55 -9 -93 -12 -58 -5 -74 -2 -121 21 -113
55 -155 189 -96 306 86 169 324 204 424 62 59 -83 41 -207 -39 -268 -44 -34
-94 -30 -112 7 -7 15 -20 32 -29 40 -14 11 -19 10 -34 -11 -21 -27 -70 -116
-70 -126 0 -3 34 -4 75 -2 56 2 79 8 92 22 17 18 17 18 -12 11 -16 -4 -50 -9
-74 -12 -42 -5 -43 -4 -36 18 10 30 35 69 44 69 4 0 20 -13 34 -30 70 -78 205
18 215 153 8 102 -42 183 -135 222 -54 23 -159 19 -213 -7z"/>
<path d="M229 502 c-53 -28 -63 -41 -37 -53 7 -3 23 -11 34 -17 12 -6 37 -14
56 -17 32 -6 34 -5 33 22 0 18 5 28 15 28 10 0 15 -10 15 -27 -1 -33 12 -35
63 -12 98 43 100 47 32 82 -64 32 -142 30 -211 -6z m196 -9 l35 -17 -37 -17
c-28 -13 -41 -14 -55 -6 -10 7 -18 15 -18 19 0 15 -34 8 -55 -12 -18 -17 -27
-19 -48 -11 -41 16 -40 28 5 44 59 20 131 20 173 0z"/>
<path d="M435 409 c-82 -42 -90 -61 -55 -143 27 -62 36 -69 71 -51 44 23 72
79 72 144 0 89 -6 92 -88 50z m61 -73 c-5 -48 -11 -66 -31 -83 -31 -28 -44
-29 -51 -5 -3 9 -10 25 -15 34 -5 10 -9 31 -9 47 0 26 7 34 48 54 26 13 51 22
56 19 5 -3 6 -32 2 -66z"/>
<path d="M129 397 c-22 -50 -25 -134 -5 -180 29 -69 106 -112 106 -59 0 10 7
27 15 38 62 79 72 194 18 194 -7 0 -36 11 -64 24 l-50 25 -20 -42z m104 -21
c32 -14 37 -21 37 -48 0 -18 -15 -63 -32 -100 -30 -62 -48 -84 -48 -58 0 6 -6
10 -14 10 -17 0 -46 75 -46 118 0 18 5 50 12 71 13 42 8 42 91 7z"/>
<path d="M16 271 c-9 -13 2 -57 25 -101 45 -89 190 -182 237 -151 10 6 4 10
-20 15 -49 9 -133 61 -163 101 -15 19 -37 60 -50 91 -12 31 -26 51 -29 45z"/>
<path d="M600 249 c0 -26 -32 -88 -67 -129 -27 -33 -135 -90 -170 -90 -15 0
-16 -2 -3 -10 33 -22 113 11 178 74 65 62 108 158 77 170 -10 4 -15 -1 -15
-15z"/>
</g>
</svg>
