<?xml version="1.0" standalone="no"?>
<!DOCTYPE svg PUBLIC "-//W3C//DTD SVG 20010904//EN"
 "http://www.w3.org/TR/2001/REC-SVG-20010904/DTD/svg10.dtd">
<svg version="1.0" xmlns="http://www.w3.org/2000/svg"
 width="32.000000pt" height="32.000000pt" viewBox="0 0 32.000000 32.000000"
 preserveAspectRatio="xMidYMid meet">
<metadata>
Created by potrace 1.10, written by Peter Selinger 2001-2011
</metadata>
<g transform="translate(0.000000,32.000000) scale(0.100000,-0.100000)"
fill="#000000" stroke="none">
<path d="M93 263 c-7 -2 -13 -15 -13 -29 0 -17 7 -25 25 -30 16 -4 25 -13 25
-25 0 -10 -3 -19 -8 -19 -7 0 -11 -5 -41 -63 -23 -43 -2 -57 84 -57 54 0 76 4
86 16 18 21 0 48 -35 52 -14 2 -26 6 -26 8 0 12 24 50 36 57 20 12 30 77 13
88 -15 9 -125 11 -146 2z m147 -20 c0 -4 -23 -40 -51 -80 l-50 -73 50 0 c39 0
51 -4 51 -15 0 -12 -15 -15 -75 -15 -48 0 -75 4 -75 11 0 6 23 42 50 80 l50
69 -44 0 c-43 0 -63 10 -49 24 9 8 143 8 143 -1z"/>
</g>
</svg>
